<?xml version="1.0" encoding="iso-8859-1"?>
<!-- Uploaded to: SVG Repo, www.svgrepo.com, Generator: SVG Repo Mixer Tools -->
<svg fill="#000000" height="800px" width="800px" version="1.1" id="Layer_1" xmlns="http://www.w3.org/2000/svg" xmlns:xlink="http://www.w3.org/1999/xlink" 
	 viewBox="0 0 512 512" xml:space="preserve">
<g>
	<g>
		<path d="M329.393,173.236l-2.328-3.092c-4.14-5.499-11.954-6.599-17.454-2.462c-5.499,4.14-6.601,11.955-2.462,17.454l2.328,3.092
			c2.45,3.253,6.186,4.968,9.967,4.968c2.61,0,5.241-0.816,7.487-2.506C332.43,186.55,333.532,178.735,329.393,173.236z"/>
	</g>
</g>
<g>
	<g>
		<path d="M158.909,105.91c-5.477-7.271-13.456-11.975-22.468-13.244c-9.01-1.268-17.979,1.047-25.24,6.516
			c-7.275,5.468-11.982,13.445-13.258,22.461c-1.274,9.017,1.038,17.987,6.515,25.26c6.688,8.882,16.913,13.563,27.26,13.563
			c7.133,0,14.326-2.227,20.45-6.836c7.279-5.474,11.987-13.453,13.26-22.467C166.699,122.15,164.385,113.183,158.909,105.91z
			 M140.743,127.68c-0.34,2.418-1.605,4.558-3.558,6.027c-0.001,0.001-0.004,0.003-0.005,0.004
			c-4.029,3.032-9.775,2.226-12.809-1.803c-1.468-1.949-2.088-4.356-1.746-6.778c0.341-2.419,1.604-4.559,3.561-6.03
			c1.603-1.208,3.513-1.843,5.484-1.843c0.43,0,0.861,0.03,1.295,0.091c2.418,0.34,4.559,1.603,6.029,3.555
			C140.464,122.856,141.084,125.263,140.743,127.68z"/>
	</g>
</g>
<g>
	<g>
		<path d="M84.083,262.622l-2.443-3.24c-4.143-5.496-11.956-6.594-17.455-2.45c-5.496,4.143-6.594,11.959-2.45,17.455l2.443,3.241
			c2.45,3.25,6.183,4.962,9.962,4.962c2.612,0,5.246-0.818,7.493-2.511C87.13,275.935,88.228,268.119,84.083,262.622z"/>
	</g>
</g>
<g>
	<g>
		<path d="M489.603,457.348L327.346,241.766l24.278-18.268c0.001-0.001,0.003-0.003,0.004-0.003l16.648-12.536
			c8.387-6.312,13.813-15.512,15.283-25.904c1.469-10.396-1.198-20.741-7.51-29.127l-62.516-83.057
			C252.846-7.743,137.895-23.961,57.288,36.72c-5.5,4.139-6.602,11.954-2.462,17.453l21.33,28.336
			c-22.505,19.218-40.92,48.326-51.433,81.822c-6.363,20.291-9.45,40.631-9.183,60.456c0,0.049-0.006,0.096-0.006,0.145
			c0,0.047,0.006,0.094,0.007,0.141c0,0.014,0,0.027,0,0.041c0.715,49.144,22.074,86.239,55.746,96.813
			c6.207,1.947,12.603,2.893,19.094,2.893c29.91-0.003,61.727-20.117,85.202-55.192c0.031-0.045,0.061-0.09,0.092-0.135
			c0.014-0.021,0.029-0.041,0.042-0.062c5.04-7.55,9.567-15.566,13.55-23.992l12.088,29.515
			c4.654,11.352,14.106,19.731,25.935,22.985c11.832,3.257,24.244,0.894,34.059-6.489l11.468-8.632l162.268,215.568
			c5.479,7.284,13.466,11.997,22.489,13.274c1.619,0.228,3.238,0.341,4.846,0.341c7.347,0,14.464-2.366,20.44-6.861
			c7.286-5.48,12-13.472,13.272-22.499C497.408,473.61,495.086,464.625,489.603,457.348z M78.749,298.142
			c-20.867-6.552-35.236-31.408-37.858-64.455c39.038-11.609,80.835-0.234,108.644,29.526
			C127.986,291.463,100.877,305.08,78.749,298.142z M267.785,255.405c-0.005,0.004-0.01,0.009-0.015,0.012l-21.405,16.112
			c-3.591,2.701-8.133,3.567-12.461,2.374c-4.326-1.19-7.784-4.255-9.484-8.403l-24.067-58.766
			c-2.007-4.901-6.895-8.003-12.182-7.722c-5.29,0.275-9.826,3.864-11.313,8.948c-0.366,1.253-0.744,2.504-1.127,3.734
			c-3.317,10.58-7.501,20.594-12.462,29.952c-16.11-15.663-35.822-26.876-57.863-32.75c-20.963-5.586-43.215-5.854-64.247-0.988
			c1.133-11.951,3.609-24.194,7.349-36.116c10.437-33.252,29.407-61.183,52.043-76.632c0.616-0.42,1.182-0.887,1.696-1.392
			c23.323-17.04,51.852-24.193,80.508-20.15c29.192,4.119,55.032,19.362,72.76,42.922l30.272,40.215
			c4.139,5.499,11.956,6.599,17.453,2.462c5.5-4.139,6.602-11.954,2.463-17.453l-30.269-40.213
			c-21.732-28.881-53.408-47.567-89.194-52.616c-31.641-4.462-63.139,2.211-89.973,18.837L82.53,49.526
			c68.824-43.824,161.191-27.943,211.087,38.334l62.515,83.057c4.765,6.33,3.489,15.358-2.848,20.126l-16.643,12.532
			c-0.001,0.001-0.003,0.001-0.004,0.002L302.4,229.341c-0.001,0.001-0.003,0.001-0.004,0.003L267.785,255.405z M471.453,479.158
			c-0.343,2.432-1.613,4.584-3.575,6.061c-1.963,1.477-4.387,2.099-6.813,1.757c-2.43-0.344-4.582-1.615-6.061-3.581
			L292.734,267.823l14.697-11.066l162.261,215.588C471.171,474.306,471.795,476.727,471.453,479.158z"/>
	</g>
</g>
</svg>